<svg xmlns="http://www.w3.org/2000/svg" width="124" height="30" viewBox="0 0 124 30" fill="none">
  <path d="M45.5752 8.44973L40.2963 20.3635L39.3685 8.44973H31.1734L25.2616 20.3239L25.0494 8.44973H13.1792L14.3191 3.04321H6.50509L5.36517 8.44973H1.39523L0 15.0001H3.96994L2.66101 21.0829C1.47794 26.7017 4.39426 29.9966 9.75583 29.9966C11.3596 29.9966 13.136 29.7448 14.2328 29.0254L15.5849 22.5182C14.3191 22.9822 13.2187 23.1513 12.46 23.1513C10.8562 23.1513 10.2629 22.2232 10.644 20.4067L11.784 15.0001H17.4116L18.3717 29.5758H27.8327L33.5359 18.0002L34.381 29.5758H43.7592L54.1084 8.44973H45.5752Z" fill="#005138"/>
  <path d="M64.1105 22.7732C63.5207 23.9567 62.7152 24.5898 61.2804 24.5898C59.7594 24.5898 58.8316 23.8703 58.6626 21.3775H71.6728C72.1366 19.9423 72.392 18.5466 72.392 17.194C72.392 12.0825 68.9722 8.0249 62.8878 8.0249C55.4945 8.0249 51.0176 13.9386 51.0176 20.4459C51.0176 26.4891 54.9048 29.9963 61.0287 29.9963C66.3507 29.9963 69.7309 27.3776 71.5865 22.7696H64.1105V22.7732ZM62.6325 13.7731C64.1536 13.7731 64.7865 14.7444 64.7865 16.1832C64.7865 16.3955 64.7865 16.6473 64.7434 16.9027H59.1265C59.7162 15.0429 60.8597 13.7767 62.6325 13.7767V13.7731Z" fill="#005138"/>
  <path d="M77.2168 0L70.9238 29.5758H78.7379L85.0308 0H77.2168Z" fill="#005138"/>
  <path d="M97.2643 8.44971L91.1836 20.1548L90.1263 8.44971H82.3555L85.6062 29.5758H93.3375L105.542 8.44971H97.2643Z" fill="#005138"/>
  <path d="M123.182 17.1977C123.182 12.0861 119.763 8.02856 113.678 8.02856C106.285 8.02856 101.808 13.9423 101.808 20.4495C101.808 26.4927 105.695 29.9999 111.819 29.9999C117.141 29.9999 120.521 27.3812 122.377 22.7733H114.901C114.311 23.9567 113.506 24.5898 112.071 24.5898C110.55 24.5898 109.622 23.8704 109.453 21.3776H122.463C122.927 19.9423 123.182 18.5466 123.182 17.1941V17.1977ZM115.537 16.8991H109.921C110.51 15.0394 111.654 13.7732 113.427 13.7732C114.948 13.7732 115.581 14.7444 115.581 16.1833C115.581 16.3955 115.581 16.6473 115.537 16.9027V16.8991Z" fill="#005138"/>
</svg>
